<?xml version="1.0" encoding="UTF-8"?>
<svg xmlns="http://www.w3.org/2000/svg" version="1.1" width="608" height="298" viewBox="0 0 608 298">
<rect x="0" y="0" width="608" height="298" fill="transparent" />

<g>
<path d="M 24 34 L 284 34 L 284 214 L 24 214 Z" fill="#bfdbfe" opacity="1" stroke="none" />
<path d="M 24 34.53309513316155 L 56.5 33.9947564379 L 89 34.371482776051174 L 121.5 33.480044487792206 L 154 34.11588782040002 L 186.5 34.430503707659945 L 219 33.64526621773852 L 251.5 34.32204063080375 L 284 33.750544929915975 L 284.38595414710073 56.5 L 284.5180996864871 79 L 284.5454066732345 101.5 L 283.483024472254 124 L 284.34110532977303 146.5 L 283.9411436622997 169 L 283.8928813937069 191.5 L 284.2398947547479 214 L 251.5 214.45343340735675 L 219 213.78730705488292 L 186.5 213.49865489160976 L 154 214.4765859905253 L 121.5 213.77495023228843 L 89 213.6516138037037 L 56.5 213.7141491961444 L 24 214.3709364623035 L 24.282583085764745 191.5 L 24.171319271789944 169 L 24.18068446081941 146.5 L 24.17024681999459 124 L 23.817571357973367 101.5 L 24.533718640716657 79 L 24.460588691965036 56.5 L 24.527155212899824 34 Z" fill="none" stroke="#111827" stroke-width="2" opacity="1" stroke-linejoin="round" />
<path d="M 24 34.025577105121265 L 56.5 33.78460851434557 L 89 34.03382901581121 L 121.5 33.97070085966632 L 154 33.81960140561739 L 186.5 33.867667547149054 L 219 34.23333583243454 L 251.5 34.01406995755704 L 284 33.770951844722596 L 283.8806536569975 56.5 L 284.11694484063185 79 L 283.5745855168079 101.5 L 284.0474755031516 124 L 283.986980547793 146.5 L 284.2858935798311 169 L 284.1613828869924 191.5 L 283.7526480646241 214 L 251.5 214.41622254578846 L 219 213.8605056840862 L 186.5 213.93356297499076 L 154 213.68256077107552 L 121.5 214.10823821285157 L 89 213.92565396047456 L 56.5 214.4992266635434 L 24 213.86725698124243 L 24.124659148121008 191.5 L 23.638200749319697 169 L 23.922343091121895 146.5 L 24.171454120480195 124 L 23.858898955717088 101.5 L 23.95321317849469 79 L 23.94315978188879 56.5 L 24.32795291454632 34 Z" fill="none" stroke="#111827" stroke-width="1.8" opacity="0.7" stroke-linejoin="round" />
</g>
<g>
<path d="M 444.52076187420744 184.09127342210755 L 442.4036311269339 194.0412532380033 L 440.52295231137873 204.0326757516862 L 434.8469845335372 213.28467496189614 L 430.16385533748206 223.06489365958598 L 421.79656127056387 231.58233396905277 L 413.6281855591905 240.28198149133388 L 402.3496629286757 247.2039491681745 L 391.1056387572064 254.08027019520836 L 378.16976460473114 260.106317421798 L 364.9463749296666 265.5888926848689 L 349.89661870373203 268.18548420402266 L 335.09205771695656 271.4728996489747 L 319.5478906734652 272.4772554806005 L 304.01750775103767 274.2417109149371 L 288.44098737318234 272.63080447241185 L 272.85757325657556 271.5984943854526 L 258.1104554844358 268.1540357422729 L 243.1912348563792 265.37634229757026 L 229.8561157580091 260.04224663747686 L 216.67399863067203 254.45749488907703 L 205.7742226051679 247.01123833775122 L 194.64613972915004 239.9545641844595 L 186.21028660746018 231.57564071380517 L 177.68116585532738 223.2285927309201 L 172.70128733664632 213.53055619819978 L 167.3713728165716 204.1023907922932 L 165.29027150009074 194.09490262386146 L 164.42728358629745 183.92511042558348 L 165.53633070888955 173.94822393194164 L 167.72400645522458 164.01060846872957 L 173.16978941914 154.7244553090561 L 177.57225523756068 144.7914680461101 L 186.208526445325 136.42263886792713 L 194.58712332651953 127.9284657923473 L 205.32416193808706 120.28866729123429 L 216.9102435783994 113.94443566017837 L 229.9743674077131 108.25050335292562 L 243.41801276109118 103.31320460712747 L 258.1450874140522 99.99992127555247 L 272.8655952459176 96.33884565018019 L 288.387310960372 94.62814233217718 L 304.0243389063661 94.33602141780848 L 319.5430408512823 95.58970086088436 L 335.184964601321 95.81423061106321 L 350.01746645420087 99.27728441790657 L 364.72053429593547 103.0158899095372 L 377.8906140833949 108.58476225993634 L 391.14011352100147 114.00269882449673 L 402.10947160502536 121.16968177972595 L 413.44906368943913 127.89734160884625 L 421.4320115771545 136.7739843152193 L 430.01327985720263 145.07006224378324 L 435.3685361510178 154.43143800951782 L 440.690201053964 163.86409378457503 L 442.0167272816197 174.02655901887925 L 443.6606214028124 184.05948255333112 Z" fill="none" stroke="#1e40af" stroke-width="3" opacity="0.45" stroke-linejoin="round" />
<path d="M 444.2470992428371 184.0433088415473 L 441.80328922288334 193.93603190224277 L 440.44893232320794 204.01970234107512 L 435.3304411544622 213.54782641031386 L 430.556783854243 223.27876953558996 L 422.0254417850277 231.80604643868713 L 413.55502211942036 240.21047005736025 L 402.6257406203721 247.6334033552578 L 391.39907962465577 254.5367337667963 L 378.21044989748015 260.20704006788037 L 364.90070784580485 265.4758368552403 L 350.07115874960016 268.96140588238654 L 335.22550470374307 272.06614121394045 L 319.57833999642884 272.89763692747624 L 304.01448329013925 274.19995539708833 L 288.38850609653514 273.3553576927642 L 272.821911087172 272.090844063983 L 258.06436358385366 268.3589383173859 L 243.1581123932031 265.52358894856826 L 230.09311962334192 259.4555074293966 L 216.50441522044704 254.87732447995404 L 205.6416787192541 247.21741771583933 L 194.31779901933027 240.46531639973472 L 186.21524841523623 231.5707909419754 L 177.77251783109023 223.13930345196263 L 172.31312651873074 213.74183695645695 L 168.05890919302564 203.72815619611046 L 166.3094077621216 193.91627961239197 L 163.70269471585095 184.05210840508676 L 165.1733052758119 173.88459682091417 L 167.25204417092692 163.92788810280592 L 172.83337011812387 154.5413381016246 L 177.69835769489595 144.8601071811649 L 186.07647906862397 136.29357307646066 L 194.2625892882891 127.61125962325494 L 205.95812887126584 121.27483807617905 L 216.74372801556734 113.68541145132853 L 229.9281015190235 108.13596509063723 L 243.3592220625217 103.16765926814028 L 258.1396580158044 99.97578476418606 L 272.74109746046366 95.7853879599321 L 288.4003190381086 94.80773103917393 L 303.96376516594194 93.49974414909505 L 319.6144584976357 94.6037133056802 L 335.1220498314236 96.68282798614796 L 350.02219065610393 99.25628287266615 L 364.75166055055234 102.87751744834411 L 377.90077047729534 108.55961855814174 L 391.1888164078671 113.88212740161873 L 402.278108440114 120.90735781403257 L 413.3607675658596 128.03469113441435 L 422.05719406132124 136.16291824070987 L 429.77126184242115 145.30661557340858 L 435.7663054520317 154.21492723447116 L 440.58129573230775 163.9233723049093 L 442.07644835967096 174.01609176419788 L 443.5612860339499 184.07689296584684 Z" fill="none" stroke="#1e40af" stroke-width="2.7" opacity="0.081" stroke-linejoin="round" />
</g>
<g>
<path d="M 474 24 L 584 104 L 474 184 L 364 104 Z" fill="#86efac" opacity="0.55" stroke="none" />
<path d="M 474.2710643511486 23.627286517170702 L 487.6958736892739 34.07442367724834 L 501.7308760198264 43.682545472738724 L 515.2694107000406 53.97331028744422 L 528.7913523909766 64.28689046240717 L 542.7447455462076 74.00722487396459 L 556.1750836446805 84.44675998856422 L 570.4306531146801 93.7516019673148 L 584.038149423212 103.94754454308362 L 570.4919274434759 114.3326502347794 L 556.785754906872 124.39291299694897 L 542.417983293073 133.5434770279754 L 529.0448309248699 144.06164252169611 L 515.5810107152329 154.45513973344518 L 501.50780175387854 164.01072741158296 L 487.4510110018256 173.58889012751018 L 474.24092452542203 184.3312712224553 L 459.9261319774791 174.44531853096626 L 446.51827210992343 163.97487584885528 L 432.6332920901155 154.1604733760912 L 418.8216421747088 144.24524200977538 L 405.0200739754408 134.31614828376885 L 391.7996810661015 123.58793853411036 L 377.60811366648056 114.19509370858927 L 364.327947791578 103.5490717865802 L 377.96007719295415 94.28885614031198 L 391.6031351829497 84.14181087655585 L 405.5360334280914 74.39329596362569 L 419.22351003300355 64.30732629537984 L 432.4874827664131 53.63903880381799 L 446.74946638697514 44.34301628209086 L 459.9326941088832 33.56370439971442 L 473.8910171908153 23.850148637371092 Z" fill="none" stroke="#065f46" stroke-width="2" opacity="0.55" stroke-linejoin="round" />
<path d="M 474.3024389183639 23.584146487249576 L 487.6717617804642 34.107577551861745 L 501.3984376843045 44.13964818408128 L 515.1398712452561 54.151427037772855 L 529.0193767077152 63.973357026891556 L 542.8611322578747 73.84719314542232 L 556.6359199994974 83.81311000069094 L 570.3715485526207 93.83287074014655 L 583.9767663536938 104.03194626367089 L 570.553614200182 114.41746952525017 L 556.7606403295708 124.35838045315988 L 542.5475986930421 133.72169820293286 L 528.9765292917693 143.9677277761829 L 515.1607113898655 153.87722816106506 L 501.4782867920576 163.97014433907916 L 487.46574749511416 173.609152805782 L 474.29665948419546 184.4079067907688 L 460.0017073611189 174.34140237846148 L 446.46899010215145 164.04263860954177 L 432.69047713802996 154.0818439352088 L 419.1647128386334 143.77351984687905 L 405.41577030895985 133.77206582518025 L 391.6553196244968 123.78643551631687 L 377.7410599621046 114.01229255210617 L 364.12500266881807 103.82812133037515 L 377.78048379055537 94.04191521201362 L 391.44887119002937 83.92969788629036 L 405.52299266962916 74.37536492074011 L 419.26297327658966 64.36158825531076 L 432.94406241015866 54.266835813968186 L 446.70829865114445 44.28641064532359 L 459.97872933198613 33.62700283148095 L 473.80152815194475 23.727101208924033 Z" fill="none" stroke="#065f46" stroke-width="1.8" opacity="0.385" stroke-linejoin="round" />
</g>
</svg>
