<?xml version="1.0" encoding="UTF-8"?>
<svg xmlns="http://www.w3.org/2000/svg" version="1.1" width="568" height="308" viewBox="0 0 568 308">
<rect x="0" y="0" width="568" height="308" fill="#ffffff" />

<g>
<path d="M 24 24 L 544 24 L 544 284 L 24 284 Z" fill="#f8fafc" opacity="1" stroke="none" />
<path d="M 24 23.670969647800238 L 89 24.54291333917241 L 154 23.464626891721885 L 219 24.0946964208228 L 284 24.35663467590863 L 349 23.964784896248858 L 414 24.0790843771465 L 479 23.52985568236735 L 544 24.38616364859363 L 543.8000638387063 56.5 L 543.4475096487031 89 L 544.2232962590032 121.5 L 543.9279003741839 154 L 544.537942896748 186.5 L 544.2014812288614 219 L 543.529734544102 251.5 L 544.1165890422699 284 L 479 284.18760614321246 L 414 283.9134405112333 L 349 284.21011055542925 L 284 283.6866445033832 L 219 283.546933811601 L 154 283.60361482960735 L 89 284.3053120171031 L 24 283.7288686775424 L 24.26245501621373 251.5 L 23.570678968399932 219 L 23.805994196459743 186.5 L 24.127318036102498 154 L 24.53061001468103 121.5 L 23.953522178606118 89 L 24.57401421401933 56.5 L 23.53243330691579 24 Z" fill="none" stroke="#334155" stroke-width="2" opacity="1" stroke-linejoin="round" />
<path d="M 24 24.242228417159964 L 89 23.737726006360077 L 154 24.219462004678125 L 219 24.139244871503642 L 284 23.810376717589694 L 349 23.56304016102832 L 414 23.908349868826324 L 479 24.371150389585424 L 544 24.34398485732426 L 544.2000255607013 56.5 L 543.6878430979953 89 L 544.0367698760401 121.5 L 544.2428398936379 154 L 544.2738646712611 186.5 L 544.3381720335784 219 L 543.566077135343 251.5 L 543.8438359263564 284 L 479 283.8933028622266 L 414 284.24601529903816 L 349 283.88720692514613 L 284 283.4874738912996 L 219 283.949221894376 L 154 284.3225680386689 L 89 284.4667318683038 L 24 284.44174011124267 L 24.18479037017491 251.5 L 23.549178073933938 219 L 23.74571421686411 186.5 L 24.318238315965377 154 L 23.594562191016255 121.5 L 24.297418334883446 89 L 24.099137422395568 56.5 L 23.83681585986962 24 Z" fill="none" stroke="#334155" stroke-width="1.8" opacity="0.7" stroke-linejoin="round" />
</g>
<text x="54" y="54" font-family="Noto Sans JP, sans-serif" font-size="24" dominant-baseline="text-before-edge" fill="#0f172a" opacity="1"><tspan x="54" dy="0">Line 1: title</tspan><tspan x="54" dy="32.400000000000006">Line 2: second sentence</tspan><tspan x="54" dy="32.400000000000006">Line 3: value = 42</tspan><tspan x="54" dy="32.400000000000006">Line 4: done</tspan></text>
</svg>
