<?xml version="1.0" encoding="UTF-8"?>
<svg xmlns="http://www.w3.org/2000/svg" version="1.1" width="418" height="246" viewBox="0 0 418 246">
<rect x="0" y="0" width="418" height="246" fill="#ffffff" />

<g>
<path d="M 24 24 L 244 24 L 244 164 L 24 164 Z" fill="#dbeafe" opacity="1" stroke="none" />
<path d="M 24 23.823832321375473 L 51.5 24.241571534291552 L 79 23.610073408243306 L 106.5 24.061319775360722 L 134 24.118575726689016 L 161.5 23.70180303213155 L 189 23.537667870793253 L 216.5 24.31105319973683 L 244 23.84411570970685 L 243.7921106054318 41.5 L 244.10687068180178 59 L 243.44687757104137 76.5 L 244.12564304395613 94 L 244.4753931492645 111.5 L 243.8412511908406 129 L 244.1037614928233 146.5 L 243.93915923341203 164 L 216.5 163.69391023678858 L 189 163.64471628864078 L 161.5 164.34458948972238 L 134 164.07498947039628 L 106.5 163.600323536673 L 79 163.45070322405087 L 51.5 164.2578777856127 L 24 163.56057194933857 L 24.07466508021685 146.5 L 24.51949342502453 129 L 24.303047876522058 111.5 L 23.87560178142455 94 L 23.497620172831823 76.5 L 23.60059076559206 59 L 24.497440383396114 41.5 L 23.438016954460117 24 Z" fill="none" stroke="#1f2937" stroke-width="2" opacity="1" stroke-linejoin="round" />
<path d="M 24 23.5427535078164 L 51.5 24.336822684615974 L 79 24.105311535640244 L 106.5 23.94792134031171 L 134 24.360895200365913 L 161.5 24.30675800651371 L 189 23.923262824336632 L 216.5 23.57139721386577 L 244 24.28298864741557 L 243.74460408506894 41.5 L 244.4785137815874 59 L 243.69376344218776 76.5 L 244.44711130494974 94 L 244.30026320720523 111.5 L 244.05984152059577 129 L 244.08768186161456 146.5 L 243.65484333270211 164 L 216.5 164.14092023697566 L 189 164.14132201049915 L 161.5 163.55665523000897 L 134 164.28495144288743 L 106.5 163.4963664745747 L 79 164.02954186294832 L 51.5 163.9240374844384 L 24 163.48624665938715 L 23.69508314060636 146.5 L 24.401953479936672 129 L 23.88698613103571 111.5 L 24.159721003303396 94 L 23.624778964487017 76.5 L 24.517869570408273 59 L 24.070750187846308 41.5 L 23.954981637015358 24 Z" fill="none" stroke="#1f2937" stroke-width="1.8" opacity="0.7" stroke-linejoin="round" />
</g>
<text x="34" y="194" font-family="Noto Sans JP, sans-serif" font-size="18" dominant-baseline="text-before-edge" fill="#111827" opacity="1"><tspan x="34" dy="0">Unsupported type should be ignored</tspan></text>
</svg>
