<?xml version="1.0" encoding="UTF-8"?>
<svg xmlns="http://www.w3.org/2000/svg" version="1.1" width="718" height="568" viewBox="0 0 718 568">
<rect x="0" y="0" width="718" height="568" fill="#ffffff" />
<rect x="24" y="24" width="280" height="220" stroke="#1f2937" fill="#eef2ff" stroke-width="2" opacity="1" />
<text x="42" y="42" font-family="Noto Sans JP, sans-serif" font-size="16" dominant-baseline="hanging" fill="#0f172a" opacity="1"><tspan x="42" dy="0">User</tspan><tspan x="42" dy="19.2">----------------</tspan><tspan x="42" dy="19.2">+ id: UUID</tspan><tspan x="42" dy="19.2">+ email: string</tspan><tspan x="42" dy="19.2">+ status: UserStatus</tspan><tspan x="42" dy="19.2">----------------</tspan><tspan x="42" dy="19.2">+ placeOrder(): Order</tspan></text>
<rect x="374" y="24" width="320" height="250" stroke="#14532d" fill="#ecfdf5" stroke-width="2" opacity="1" />
<text x="392" y="42" font-family="Noto Sans JP, sans-serif" font-size="16" dominant-baseline="hanging" fill="#052e16" opacity="1"><tspan x="392" dy="0">Order</tspan><tspan x="392" dy="19.2">----------------</tspan><tspan x="392" dy="19.2">+ orderNo: string</tspan><tspan x="392" dy="19.2">+ total: Money</tspan><tspan x="392" dy="19.2">+ state: OrderState</tspan><tspan x="392" dy="19.2">----------------</tspan><tspan x="392" dy="19.2">+ addItem(product, qty): void</tspan><tspan x="392" dy="19.2">+ pay(method): Receipt</tspan></text>
<rect x="374" y="354" width="320" height="190" stroke="#7c2d12" fill="#fff7ed" stroke-width="2" opacity="1" />
<text x="392" y="372" font-family="Noto Sans JP, sans-serif" font-size="16" dominant-baseline="hanging" fill="#431407" opacity="1"><tspan x="392" dy="0">OrderItem</tspan><tspan x="392" dy="19.2">----------------</tspan><tspan x="392" dy="19.2">+ qty: int</tspan><tspan x="392" dy="19.2">+ unitPrice: Money</tspan><tspan x="392" dy="19.2">----------------</tspan><tspan x="392" dy="19.2">+ subtotal(): Money</tspan></text>
<polyline points="304,134 374,134" stroke="#111827" fill="none" stroke-width="2" opacity="1" />
<polygon points="374,134 366,138.4 366,129.6" fill="#111827" opacity="1" />
<text x="312" y="102" font-family="Noto Sans JP, sans-serif" font-size="14" dominant-baseline="hanging" fill="#374151" opacity="1"><tspan x="312" dy="0">1 places *</tspan></text>
<polyline points="534,274 534,354" stroke="#7c2d12" fill="none" stroke-width="2" opacity="1" />
<polygon points="534,354 529.6,346 538.4,346" fill="#7c2d12" opacity="1" />
<polyline points="24,304 694,304" stroke="#9ca3af" fill="none" stroke-width="2" opacity="1" />
</svg>
