<?xml version="1.0" encoding="UTF-8"?>
<svg xmlns="http://www.w3.org/2000/svg" version="1.1" width="656.6829186450951" height="389.5277229091458" viewBox="0 0 656.6829186450951 389.5277229091458">
<rect x="0" y="0" width="656.6829186450951" height="389.5277229091458" fill="#ffffff" />

<g transform="rotate(29.999999999999996 171.58330249197704 149.6217782649107)">
<path d="M 41.58330249197704 79.62177826491069 L 301.58330249197707 79.62177826491069 L 301.58330249197707 219.6217782649107 L 41.58330249197704 219.6217782649107 Z" fill="#fde68a" opacity="1" stroke="none" />
<path d="M 41.58330249197704 79.66424685456857 L 74.08330249197704 79.40670548344428 L 106.58330249197704 80.05009497986988 L 139.08330249197704 79.8080910775342 L 171.58330249197704 79.55164547736096 L 204.08330249197704 79.06820648185932 L 236.58330249197704 79.11495950092917 L 269.08330249197707 79.70242798496797 L 301.58330249197707 79.84669045245056 L 301.9140878577367 97.12177826491069 L 301.6895835730561 114.62177826491069 L 301.32105288625166 132.1217782649107 L 301.5533723808788 149.6217782649107 L 302.01258813472253 167.1217782649107 L 301.41735088728285 184.6217782649107 L 301.15446712374666 202.1217782649107 L 301.1725390058481 219.6217782649107 L 269.08330249197707 219.6657620313748 L 236.58330249197707 219.84858548005053 L 204.08330249197707 220.06899541528364 L 171.58330249197707 219.7909114499189 L 139.08330249197707 219.58087592972277 L 106.58330249197707 220.12281172238937 L 74.08330249197707 219.12590583340764 L 41.583302491977065 220.02578838667995 L 42.09321687898113 202.1217782649107 L 41.98803427103258 184.6217782649107 L 41.84286392363956 167.1217782649107 L 41.011870853771185 149.6217782649107 L 41.59256492056923 132.1217782649107 L 41.2147584871157 114.62177826491069 L 41.43835476081907 97.12177826491069 L 42.137514997999084 79.62177826491069 Z" fill="none" stroke="#111827" stroke-width="2" opacity="1" stroke-linejoin="round" />
<path d="M 41.58330249197704 79.68597243623324 L 74.08330249197704 79.2374024624983 L 106.58330249197704 79.97322684221231 L 139.08330249197704 79.21713558066664 L 171.58330249197704 79.96479637681914 L 204.08330249197704 79.96158795441762 L 236.58330249197704 80.09526536390705 L 269.08330249197707 79.56533319594128 L 301.58330249197707 79.21164980630697 L 301.0922032558604 97.12177826491069 L 301.4555225929284 114.62177826491069 L 301.9581255431951 132.1217782649107 L 301.58803183760665 149.6217782649107 L 301.36828276671974 167.1217782649107 L 301.6148126154819 184.6217782649107 L 301.1740334024085 202.1217782649107 L 301.193635626583 219.6217782649107 L 269.08330249197707 219.45737071956322 L 236.58330249197707 219.85617786620364 L 204.08330249197707 219.712336828995 L 171.58330249197707 219.1812409661347 L 139.08330249197707 219.989833243732 L 106.58330249197707 219.85140352360636 L 74.08330249197707 219.89819018533365 L 41.583302491977065 219.35539033879786 L 41.436492865924436 202.1217782649107 L 41.17343192160398 184.6217782649107 L 42.02985850550291 167.1217782649107 L 41.3977234558648 149.6217782649107 L 41.799589765900016 132.1217782649107 L 42.02787685936855 114.62177826491069 L 42.057577086977965 97.12177826491069 L 41.814268032898006 79.62177826491069 Z" fill="none" stroke="#111827" stroke-width="1.8" opacity="0.7" stroke-linejoin="round" />
</g>
<g transform="rotate(-22.5 486.58330249197707 149.6217782649107)">
<path d="M 611.5833024919771 149.6217782649107 L 608.449291514705 167.42345298141583 L 599.2044109797795 184.33247739431533 L 584.3122378004808 199.50096241360936 L 564.5195277243188 212.1682968623531 L 540.8187698816719 221.69928769710424 L 514.3984192365164 227.61601123945658 L 486.58330249197707 229.6217782649107 L 458.76818574743777 227.61601123945658 L 432.3478351022823 221.69928769710424 L 408.64707725963535 212.1682968623531 L 388.85436718347336 199.5009624136094 L 373.9621940041747 184.33247739431533 L 364.7173134692491 167.42345298141583 L 361.58330249197707 149.6217782649107 L 364.7173134692491 131.82010354840554 L 373.96219400417465 114.91107913550604 L 388.8543671834733 99.74259411621205 L 408.64707725963535 87.07525966746832 L 432.34783510228226 77.54426883271717 L 458.76818574743777 71.6275452903648 L 486.58330249197707 69.62177826491069 L 514.3984192365164 71.6275452903648 L 540.8187698816719 77.54426883271715 L 564.5195277243188 87.07525966746829 L 584.3122378004807 99.74259411621199 L 599.2044109797795 114.91107913550601 L 608.449291514705 131.8201035484055 Z" fill="#fed7aa" opacity="0.95" stroke="none" />
<path d="M 612.1015345118527 149.7130137730822 L 609.9269591764255 158.5068875675338 L 608.6054280891606 167.45094105464997 L 604.2539310549512 176.11146782555386 L 598.8787890619981 184.15444608653945 L 591.3822827261132 191.54752828225133 L 584.6547486752728 199.83723404895773 L 574.7504306788081 206.35736075736912 L 564.775534852819 212.56830800063472 L 552.5600307590659 216.6624479483495 L 540.6995278736271 221.40276805855456 L 527.7421686353098 225.2541069342168 L 514.4110507615047 227.67241565264024 L 500.4616915967746 228.2143878629019 L 486.54014046382446 229.0232257726417 L 472.6520870151064 228.9469613311847 L 458.7269359993263 228.18804505237804 L 445.5197923086626 224.82830743864292 L 432.34991737896956 221.6899895644767 L 420.6225272218994 216.62277755881908 L 408.5218032642649 212.4798162709575 L 398.65414851690883 205.98552605148993 L 388.85759927483207 199.49591227086142 L 381.82198314327775 191.51055343424932 L 373.87805903519694 184.41507974562845 L 369.1090631180545 176.0040935296278 L 364.4690463867585 167.55919112114134 L 362.5896621659337 158.62131814219862 L 361.45251114614166 149.6448042734244 L 363.5441201422489 140.79027211606424 L 365.0579584195694 131.88007459217852 L 369.2362284690968 123.30898968901137 L 374.3445036755668 115.1201040415598 L 381.0280477262584 106.95353014831396 L 389.1508990901631 100.03372434457663 L 398.71748859234845 93.35699934620598 L 408.49112493355096 86.83158415796149 L 420.3967343765214 82.05929888528087 L 432.4037984883219 77.68343323687805 L 445.53170286378594 74.46843410827194 L 458.7522981248634 71.5566012017441 L 472.6759642028014 70.62771379558193 L 486.54896032047895 69.14553576148998 L 500.50760605536067 70.39244665004145 L 514.3981045597359 71.63190909297742 L 527.6032420519931 74.60980797788896 L 540.695490097309 78.09475849257944 L 552.7633550899928 82.07550105184856 L 564.6773885788482 86.68270636940056 L 574.6645799972193 93.02033746243454 L 584.3324751450464 99.71097326532814 L 591.9215636878899 107.1665709243856 L 599.4574944140709 114.66260591438436 L 603.3415816273472 123.63090881702765 L 608.4574573328932 131.81563894939754 L 609.6344020160655 140.7881740800166 L 611.2277056439094 149.68438161224037 Z" fill="none" stroke="#7c2d12" stroke-width="2" opacity="0.95" stroke-linejoin="round" />
<path d="M 611.4915234062619 149.60562042208434 L 610.3019994147198 158.57291395226733 L 608.2020932901396 167.37993337094727 L 603.9551985651809 175.94813810809717 L 599.0112847017671 184.22688707019125 L 592.1626817901005 192.31371145710884 L 584.1637307436578 199.355160587933 L 574.3334747199477 205.7058670716497 L 564.6812613045724 212.4210055814995 L 552.6965238066484 217.00186582462797 L 540.9946377534354 222.13661912604346 L 527.7222556411838 225.16518807846208 L 514.4504095245946 227.84816703165103 L 500.4847648359849 228.53435764711176 L 486.57141116383093 229.45687442690976 L 472.6596541491257 228.8420235624925 L 458.75069341504724 227.85858740179347 L 445.45202957658154 225.13089300469838 L 432.45316411702277 221.22895483760325 L 420.4671721632819 217.0090996829051 L 408.72869196555564 211.96534520549466 L 398.82427910940885 205.7196970007086 L 388.6350755927307 199.84360552414486 L 381.1833731932144 192.1375303510785 L 373.7775360924536 184.51377154444177 L 369.0613090967574 176.03020267768827 L 364.9631214133369 167.28905935691472 L 363.40254703995276 158.47820856632976 L 361.7706387466888 149.5887974421478 L 363.58220155139526 140.7969764040706 L 364.2300451798353 131.734319250455 L 369.417003994807 123.4078273332195 L 373.6536596997528 114.74239035041384 L 381.3552891182189 107.27481045246506 L 388.64711396415476 99.53911625865852 L 398.4421921624035 92.92684867441706 L 408.8627977321793 87.41232290581817 L 420.2941675215041 81.80424542488052 L 432.4754053560398 77.86149835739657 L 445.60720271349777 74.80556875530507 L 458.643648807909 71.07144196948595 L 472.68194821754065 70.7106975451704 L 486.5966110077108 69.8063350524805 L 500.51194339829345 70.33229823873242 L 514.3932713295726 71.69893425569087 L 527.5663290552116 74.77463810918603 L 540.7021319742829 78.06510006467774 L 552.8814189212545 81.78191119081288 L 564.4991302980412 87.12598203927607 L 574.215125508897 93.72261010043816 L 584.6217794202616 99.25893533530424 L 591.7709069257398 107.31448329597166 L 598.9966397195402 115.11506559725412 L 604.2033842786603 123.15972476988684 L 608.3136127432298 131.89428488511567 L 609.8816936275623 140.74463802864165 L 611.1714620860737 149.6942833731963 Z" fill="none" stroke="#7c2d12" stroke-width="1.8" opacity="0.6649999999999999" stroke-linejoin="round" />
</g>
<text x="41.58330249197704" y="279.6217782649107" font-family="Noto Sans JP, sans-serif" font-size="20" dominant-baseline="text-before-edge" fill="#1d4ed8" opacity="1" transform="rotate(14.999999999999998 221.58330249197704 299.6217782649107)"><tspan x="41.58330249197704" dy="0">Rotation test: rect / ellipse / text</tspan></text>
</svg>
