<?xml version="1.0" encoding="UTF-8"?>
<svg xmlns="http://www.w3.org/2000/svg" version="1.1" width="348" height="188" viewBox="0 0 348 188">
<rect x="0" y="0" width="348" height="188" fill="#f9fafb" />

<g>
<path d="M 24 24 L 324 24 L 324 164 L 24 164 Z" fill="#dbeafe" opacity="1" stroke="none" />
<path d="M 24 24.431423512773446 L 61.5 23.952473246326853 L 99 24.406678526761652 L 136.5 24.54138603438548 L 174 24.25015818436574 L 211.5 23.827471283626597 L 249 23.580584738882546 L 286.5 24.350616734614285 L 324 24.518974611679866 L 323.4718864768029 41.5 L 323.73263417409174 59 L 324.18959449497385 76.5 L 323.49101067636093 94 L 323.82794059425834 111.5 L 324.3225380447997 129 L 323.8293365292398 146.5 L 324.34828962232166 164 L 286.5 163.63307594028333 L 249 163.75302701237263 L 211.5 164.38510936808868 L 174 163.95044104330464 L 136.5 163.4664168198248 L 99 163.86410972097053 L 61.5 164.01736092180366 L 24 164.4656796688879 L 23.66068061932301 146.5 L 23.96404557609337 129 L 23.58532828633023 111.5 L 24.22287384425071 94 L 23.888612506728155 76.5 L 23.82182740335542 59 L 23.734590604629798 41.5 L 24.457243669411945 24 Z" fill="none" stroke="#1f2937" stroke-width="2" opacity="1" stroke-linejoin="round" />
<path d="M 24 24.114553921076478 L 61.5 23.80970515684582 L 99 23.974992957187187 L 136.5 24.408041924613034 L 174 23.580331496300175 L 211.5 24.49524278529247 L 249 24.386696235935954 L 286.5 23.503690118792388 L 324 23.864638557142076 L 323.5047629792853 41.5 L 324.2661184217068 59 L 324.3865591079717 76.5 L 323.54696489423816 94 L 324.22756910331447 111.5 L 324.30763769128623 129 L 324.04136121480553 146.5 L 323.59620273745213 164 L 286.5 164.1065411207129 L 249 164.40215744006827 L 211.5 163.58420339409824 L 174 163.68307696740737 L 136.5 164.3578129728586 L 99 163.69336578155807 L 61.5 164.48215264159026 L 24 164.24635176928368 L 24.361057888702074 146.5 L 24.182041849551265 129 L 24.481001816923015 111.5 L 23.697826151910267 94 L 23.6544271583699 76.5 L 24.351988645096277 59 L 23.838056354565307 41.5 L 24.484944997225682 24 Z" fill="none" stroke="#1f2937" stroke-width="1.8" opacity="0.7" stroke-linejoin="round" />
</g>
<text x="24" y="24" font-family="Noto Sans JP, sans-serif" font-size="28" dominant-baseline="text-before-edge" fill="#111827" opacity="1"><tspan x="24" dy="0">Text and Rectangle</tspan><tspan x="24" dy="33.6">share same frame</tspan></text>
</svg>
