<?xml version="1.0" encoding="UTF-8"?>
<svg xmlns="http://www.w3.org/2000/svg" version="1.1" width="678" height="678" viewBox="0 0 678 678">
<rect x="0" y="0" width="678" height="678" fill="#ffffff" />

<g>
<path d="M 24 24 L 204 24 L 204 124 L 24 124 Z" fill="#e5e7eb" opacity="1" stroke="none" />
<path d="M 24 24.144588946224513 L 46.5 23.811082400244505 L 69 24.161746496649947 L 91.5 24.1336883392697 L 114 23.73612822943969 L 136.5 23.785782174042517 L 159 23.731405050798354 L 181.5 24.18351241662085 L 204 23.936533961488255 L 203.80383389557775 40.666666666666664 L 203.8862548851852 57.33333333333333 L 204.00337126929938 74 L 203.8547186068547 90.66666666666666 L 204.01989338104963 107.33333333333334 L 204.15155570281973 124 L 181.5 123.99414361875725 L 159 123.73847539015013 L 136.5 123.99848544749868 L 114 124.0879399667227 L 91.5 124.00600503568813 L 69 124.08167045899496 L 46.5 124.13574461548197 L 24 124.10204497717673 L 24.237092028124597 107.33333333333334 L 24.17993223143517 90.66666666666667 L 23.770947627983386 74 L 23.986412040013594 57.33333333333334 L 23.768138445290692 40.66666666666666 L 24.242969096752258 24 Z" fill="none" stroke="#1f2937" stroke-width="3" opacity="1" stroke-linejoin="round" />
</g>
<g>
<path d="M 244 24 L 424 24 L 424 124 L 244 124 Z" fill="#e5e7eb" opacity="1" stroke="none" />
<path d="M 244 23.768220990849525 L 266.5 24.122334149469076 L 289 23.514548057796848 L 311.5 23.593918144185963 L 334 23.977369707772873 L 356.5 24.16594374395684 L 379 23.735556291730475 L 401.5 23.99324121571179 L 424 24.163168280290403 L 424.4814714686315 40.666666666666664 L 423.7053852506827 57.33333333333333 L 424.01055774608733 74 L 423.59209416967946 90.66666666666666 L 424.3807694300411 107.33333333333334 L 424.34935811944894 124 L 401.5 124.11360279371726 L 379 123.84294546113428 L 356.5 123.50040879268708 L 334 123.988646652838 L 311.5 123.80956163215549 L 289 123.60707952341161 L 266.5 123.9762747918272 L 244 124.1071120138254 L 243.60157552392917 107.33333333333334 L 244.32285241237184 90.66666666666667 L 243.92368133614636 74 L 244.18233657581658 57.33333333333334 L 244.12838675256188 40.66666666666666 L 244.3932226984276 24 Z" fill="none" stroke="#1f2937" stroke-width="3" opacity="1" stroke-linejoin="round" />
</g>
<g>
<path d="M 464 24 L 644 24 L 644 124 L 464 124 Z" fill="#e5e7eb" opacity="1" stroke="none" />
<path d="M 464 24.313374194711322 L 486.5 23.942677477946308 L 509 23.974154964092122 L 531.5 23.780668248935072 L 554 24.572958301890978 L 576.5 23.72832022155347 L 599 23.208778183554763 L 621.5 23.412878849877814 L 644 23.5796697196556 L 643.6768346517081 40.666666666666664 L 643.2771590290761 57.33333333333333 L 643.897300429022 74 L 643.513938730234 90.66666666666666 L 643.388919269337 107.33333333333334 L 643.7760792646302 124 L 621.5 124.20806998604345 L 599 124.09240459233105 L 576.5 124.12161923234207 L 554 124.01795152666531 L 531.5 124.30154077588263 L 509 123.29663135134405 L 486.5 124.75652113160888 L 464 124.80579359992464 L 463.23849880962945 107.33333333333334 L 464.4613139987441 90.66666666666667 L 464.7114729319037 74 L 464.17984266094345 57.33333333333334 L 463.93634196634326 40.66666666666666 L 464.78053931057536 24 Z" fill="none" stroke="#1f2937" stroke-width="3.3600000000000003" opacity="1" stroke-linejoin="round" />
<path d="M 464 23.502398256237115 L 486.5 23.55663321865148 L 509 24.867247541124698 L 531.5 23.783337237199888 L 554 24.25163126491499 L 576.5 23.772265925038337 L 599 24.355243573460147 L 621.5 23.395022600411064 L 644 24.387191525096682 L 643.5460695944751 40.666666666666664 L 644.1604691937755 57.33333333333333 L 644.7467635227356 74 L 643.7310906960649 90.66666666666666 L 644.0448254331218 107.33333333333334 L 643.8617967699691 124 L 621.5 123.59903079744325 L 599 124.42641465856701 L 576.5 124.44546695509463 L 554 124.54516189599252 L 531.5 124.24987746728904 L 509 123.44782592936562 L 486.5 124.14516114434507 L 464 123.25939167227502 L 464.84914504373813 107.33333333333334 L 464.3799956582847 90.66666666666667 L 463.87500979912727 74 L 464.4904474272207 57.33333333333334 L 463.5164820065222 40.66666666666666 L 463.60639352680914 24 Z" fill="none" stroke="#1f2937" stroke-width="3.0240000000000005" opacity="0.18" stroke-linejoin="round" />
</g>
<g>
<path d="M 24 174 L 24.800000000000008 166.80000000000004 L 27.200000000000003 161.20000000000002 L 31.2 157.2 L 36.800000000000004 154.8 L 44 154 L 184 154 L 191.20000000000002 154.80000000000004 L 196.8 157.20000000000002 L 200.8 161.2 L 203.20000000000002 166.8 L 204 174 L 204 234 L 203.20000000000005 241.20000000000002 L 200.8 246.8 L 196.8 250.8 L 191.2 253.20000000000002 L 184 254 L 44 254 L 36.800000000000004 253.20000000000005 L 31.2 250.8 L 27.200000000000003 246.8 L 24.8 241.2 L 24 234 Z" fill="#e5e7eb" opacity="1" stroke="none" />
<path d="M 23.72386712458977 173.96931856939887 L 24.90338824562058 166.81148758284678 L 27.267891218744975 161.22909623660502 L 31.1806180993293 157.18061809932928 L 36.73922902509784 154.65820105856164 L 44.02663799012513 154.23974191112617 L 61.5 154.1017198727588 L 79 153.73869641774726 L 96.5 153.97095896387683 L 114 154.0351154329614 L 131.5 154.16639254871697 L 149 154.26644140473246 L 166.5 153.88333222807083 L 184 154.0651338053033 L 191.21603806349952 154.65565742850444 L 196.87698813208002 157.02036102514668 L 200.72908153111416 161.27091846888584 L 203.21532215140118 166.7934333636852 L 204.01145750274253 173.99872694413972 L 203.95388050940642 189 L 204.07005687031315 204 L 204.03998650639832 219 L 203.8429203244108 234 L 203.07059922498132 241.18562213610906 L 200.64847657858115 246.7350613908205 L 196.71619523246468 250.71619523246468 L 191.10100200468707 252.9690046776032 L 184.0202204578574 254.18198412071652 L 166.5 254.2523302496134 L 149 254.2617636099435 L 131.5 254.04591183672494 L 114 254.27773766544877 L 96.5 254.26495107279845 L 79 253.84626477255875 L 61.5 254.17429221959893 L 44 254.26804174692947 L 36.78504201251861 253.3346218873326 L 31.193935778206335 250.8141498508519 L 27.237297488488803 246.7627025115112 L 24.712460751092436 241.23751682096037 L 23.883946156314764 234.0128948715206 L 23.984796377801768 219 L 24.12375353353386 204 L 24.02207826149403 189 L 23.89352069715212 174 Z" fill="none" stroke="#1f2937" stroke-width="3" opacity="1" stroke-linejoin="round" />
</g>
<g>
<path d="M 244 174 L 244.80000000000004 166.80000000000004 L 247.2 161.20000000000002 L 251.2 157.2 L 256.8 154.8 L 264 154 L 404 154 L 411.2000000000001 154.80000000000004 L 416.8 157.20000000000002 L 420.79999999999995 161.2 L 423.20000000000005 166.8 L 424 174 L 424 234 L 423.2000000000001 241.20000000000002 L 420.79999999999995 246.8 L 416.8 250.8 L 411.20000000000005 253.20000000000002 L 404 254 L 264 254 L 256.80000000000007 253.20000000000005 L 251.2 250.8 L 247.20000000000002 246.8 L 244.8 241.2 L 244 234 Z" fill="#e5e7eb" opacity="1" stroke="none" />
<path d="M 244.49403769561235 174.05489307729027 L 245.28526659255485 166.8539185102839 L 246.7555994299857 161.00954261285105 L 251.31318160564928 157.31318160564928 L 256.87900416294855 154.9843430468799 L 264.05580365729367 154.50223291564276 L 281.5 153.7709191288793 L 299 153.73999068662582 L 316.5 154.18717532118663 L 334 154.25468410930142 L 351.5 154.1049540771993 L 369 153.5268405333117 L 386.5 154.46305148493423 L 404 154.09686827502966 L 411.22344723788444 154.58897485904112 L 416.9504102208223 156.84904281808141 L 421.0647578279854 160.93524217201457 L 423.36933146924724 166.72742937032265 L 424.3427707381942 173.96191436242287 L 423.52595522149585 189 L 424.42539226582664 204 L 424.3433673972942 219 L 423.80379047845224 234 L 422.7361131201881 241.14845701335426 L 420.86942433986246 246.8297532885125 L 416.8170941046763 250.8170941046763 L 411.2794951199167 253.38548861313888 L 404.0062947774139 254.05665299672538 L 386.5 254.35248670461567 L 369 254.2057177318146 L 351.5 254.1632418509064 L 334 254.24903910711868 L 316.5 254.41528060312385 L 299 253.958284562671 L 281.5 254.32929799566702 L 264 254.11532368042793 L 256.8327919119306 252.90487279262518 L 251.24018543054197 250.70623399540207 L 246.85394477071483 247.1460552292852 L 244.7109389727783 241.23816901166643 L 243.5414683397739 234.05094796224733 L 243.74785572882433 219 L 243.82995993897575 204 L 243.5028406417691 189 L 244.41859282620965 174 Z" fill="none" stroke="#1f2937" stroke-width="3" opacity="1" stroke-linejoin="round" />
</g>
<g>
<path d="M 464 174 L 464.80000000000007 166.80000000000004 L 467.2 161.20000000000002 L 471.20000000000005 157.2 L 476.80000000000007 154.8 L 484 154 L 624 154 L 631.2 154.80000000000004 L 636.8 157.20000000000002 L 640.8000000000001 161.2 L 643.2 166.8 L 644 174 L 644 234 L 643.2000000000002 241.20000000000002 L 640.8000000000001 246.8 L 636.8 250.8 L 631.2 253.20000000000002 L 624 254 L 484 254 L 476.80000000000007 253.20000000000005 L 471.2 250.8 L 467.20000000000005 246.8 L 464.8 241.2 L 464 234 Z" fill="#e5e7eb" opacity="1" stroke="none" />
<path d="M 464.4852703761252 174.05391893068057 L 464.19886824625473 166.73320758291723 L 466.75788005334925 161.010520022864 L 471.0321186243076 157.03211862430757 L 476.9161901702608 155.07111039727505 L 484.004372472771 154.03935225493942 L 501.5 153.76351926683924 L 519 154.47991618906377 L 536.5 153.89571419089697 L 554 153.5093098371089 L 571.5 153.75326526981615 L 589 154.47712570973022 L 606.5 154.0508622885839 L 624 154.5717158676724 L 631.2122845395824 154.6894391437588 L 636.8328565539009 157.12333470756454 L 641.0263723280694 160.97362767193056 L 643.1629028989298 166.81589875760153 L 644.4050340643881 173.95499621506798 L 643.3615061301147 189 L 643.5746207259416 204 L 644.1750809462467 219 L 643.819229442001 234 L 643.2736203875138 241.2081800430571 L 640.8562478761049 246.82410623261637 L 637.3586750356523 251.3586750356523 L 630.9807023687308 252.68830552703847 L 624.0038761309113 254.0348851782013 L 606.5 254.15938651844664 L 589 254.18452458802926 L 571.5 254.70122652408412 L 554 254.7578800708743 L 536.5 254.18374740073864 L 519 253.3313932749492 L 501.5 253.9160263074431 L 484 253.89256092563937 L 476.79716702425264 253.22549678172686 L 471.46552926691663 250.18043171052787 L 467.47031316070655 246.5296868392935 L 465.5189085884891 240.89189631921894 L 464.20612622391906 233.97709708623123 L 463.7100286228969 219 L 464.02053301949917 204 L 463.5248211773451 189 L 464.54578165280515 174 Z" fill="none" stroke="#1f2937" stroke-width="3.3600000000000003" opacity="1" stroke-linejoin="round" />
<path d="M 463.89715240843043 173.9885724898256 L 464.3540851957673 166.75045391064083 L 467.1635566011505 161.1843814004931 L 471.5147185152724 157.5147185152724 L 476.8951162275084 155.02193786418619 L 484.06262142152434 154.56359279371884 L 501.5 154.79808566915477 L 519 153.24916202012398 L 536.5 154.22497173866796 L 554 153.22323556592863 L 571.5 154.80246749151448 L 589 154.84574805472724 L 606.5 154.49956835537256 L 624 153.42921758720414 L 631.1913531876025 154.87782131157763 L 636.5788641830361 157.7159835729157 L 640.5826185239366 161.4173814760634 L 643.5353112249283 166.65629518931647 L 643.5580320992607 174.04910754452658 L 644.6138893265266 189 L 643.9132498066132 204 L 644.4615258125206 219 L 644.6226585467093 234 L 642.4311316798667 241.11457018665186 L 640.5762228324573 246.70409549962454 L 637.200797311627 251.20079731162699 L 631.1292730460223 253.03497044071844 L 623.9144431734235 253.22998856081114 L 606.5 254.3691933664582 L 589 253.93392584543685 L 571.5 253.75614749195205 L 554 253.51370267834042 L 536.5 253.9970934890721 L 519 254.19696945068122 L 501.5 253.8092619394371 L 484 253.82873122594862 L 476.72322852503004 253.8909432747305 L 471.23187427824615 250.72562668409233 L 467.36738010644825 246.6326198935518 L 465.49742733337473 240.90110257141083 L 463.418285240415 234.0646349732872 L 463.20961472072156 219 L 463.2141626095533 204 L 464.45188381989624 189 L 464.62721208656603 174 Z" fill="none" stroke="#1f2937" stroke-width="3.0240000000000005" opacity="0.18" stroke-linejoin="round" />
</g>
<g>
<path d="M 204 334 L 201.74351209636413 345.1260466978157 L 195.08719811121773 355.6941869558779 L 184.36483342212267 365.17449009293665 L 170.11408216728603 373.0915741234015 L 153.04953652058023 379.04844339512096 L 134.0268840560683 382.74639560909117 L 114 384 L 93.9731159439317 382.74639560909117 L 74.95046347941977 379.04844339512096 L 57.885917832713986 373.0915741234015 L 43.63516657787733 365.1744900929367 L 32.91280188878228 355.6941869558779 L 26.256487903635872 345.12604669781575 L 24 334 L 26.256487903635872 322.8739533021843 L 32.91280188878228 312.3058130441221 L 43.63516657787727 302.82550990706335 L 57.88591783271398 294.9084258765985 L 74.95046347941975 288.95155660487904 L 93.97311594393169 285.25360439090883 L 113.99999999999999 284 L 134.02688405606827 285.25360439090883 L 153.0495365205802 288.95155660487904 L 170.114082167286 294.9084258765985 L 184.36483342212267 302.8255099070633 L 195.08719811121773 312.3058130441221 L 201.7435120963641 322.87395330218425 Z" fill="#bfdbfe" opacity="1" stroke="none" />
<path d="M 203.79923252450797 333.95928208894 L 202.0269701661099 345.1835351951177 L 195.22632223940337 355.7818139041867 L 184.373208372005 365.1839622865567 L 170.15950453223604 373.17333438031153 L 161.60491981193158 376.1362129376791 L 153.1075439851193 379.2146164268468 L 143.59573791630532 381.1933476295863 L 134.01663768121372 382.69368718653686 L 124.02164802493144 383.5042922308401 L 113.98322816374208 383.7320625050609 L 103.99719347318751 383.2032909731809 L 93.98013452496096 382.6342706759541 L 84.46447321371505 380.8836152873061 L 75.00629562395079 378.76123701161237 L 66.40245422232101 376.1150886627682 L 57.82305398673635 373.27165915133816 L 43.67900925232901 365.09557327892367 L 32.89091792917316 355.7189380416162 L 26.134182801864064 345.20308022873974 L 24.257720407059118 333.9477313913159 L 26.26697621764232 322.876080450697 L 32.786412748728395 312.22620719295355 L 43.5852243293434 302.7690244767525 L 57.790034813244226 294.735836441553 L 66.51843487216405 292.21715920152144 L 75.01663425145817 289.1411149296333 L 84.4832803921892 287.21313080330066 L 93.92340769633306 284.9978999729025 L 103.9912384983135 284.7015756719722 L 114.01280019369061 284.2044887500366 L 124.0313353477141 284.3409485073148 L 134.0117135418505 285.4959600587045 L 143.51783053601196 287.20741607258987 L 153.02400149546384 289.08291144138184 L 161.5631645293858 291.9834027349993 L 170.15490084576177 294.79149327822927 L 184.29361970202137 302.9536946032456 L 195.02267752524085 312.37878679219705 L 201.89194908125899 322.7804606767703 L 204.15696312826384 333.9681661051887 Z" fill="none" stroke="#1d4ed8" stroke-width="3" opacity="1" stroke-linejoin="round" />
</g>
<g>
<path d="M 424 334 L 421.74351209636416 345.1260466978157 L 415.08719811121773 355.6941869558779 L 404.3648334221227 365.17449009293665 L 390.114082167286 373.0915741234015 L 373.0495365205802 379.04844339512096 L 354.0268840560683 382.74639560909117 L 334 384 L 313.9731159439317 382.74639560909117 L 294.9504634794198 379.04844339512096 L 277.885917832714 373.0915741234015 L 263.6351665778773 365.1744900929367 L 252.91280188878227 355.6941869558779 L 246.25648790363587 345.12604669781575 L 244 334 L 246.25648790363587 322.8739533021843 L 252.91280188878227 312.3058130441221 L 263.63516657787727 302.82550990706335 L 277.885917832714 294.9084258765985 L 294.95046347941974 288.95155660487904 L 313.9731159439317 285.25360439090883 L 334 284 L 354.0268840560683 285.25360439090883 L 373.0495365205802 288.95155660487904 L 390.114082167286 294.9084258765985 L 404.3648334221227 302.8255099070633 L 415.08719811121773 312.3058130441221 L 421.7435120963641 322.87395330218425 Z" fill="#bfdbfe" opacity="1" stroke="none" />
<path d="M 423.58608690154165 333.91605374980037 L 421.39084525375205 345.0545218798834 L 414.9210649516708 355.5895484436813 L 404.5279006715668 365.35892159181486 L 389.9490756085831 372.79456231773617 L 381.5312324123771 375.92512185343213 L 373.03359011998924 379.0027620030385 L 363.46755572359575 380.53396504080075 L 353.9468234588616 382.334555534195 L 344.0346399769682 383.71184440518607 L 333.97093238321196 383.53563197814043 L 323.9918356363963 383.28888478330714 L 314.0035567724704 382.26008992275496 L 304.5606502506248 380.38887056310733 L 295.01440797807146 378.7195062146262 L 286.24706474675935 376.5602303433703 L 277.97582203926873 372.8340270182689 L 263.4454322131829 365.51601194938667 L 252.9674693322787 355.63235725936767 L 246.48341261387822 344.98311879513113 L 243.8092825799766 334.0386796463276 L 246.5778722851503 322.9391336837701 L 252.6605810560298 312.1469524484639 L 263.3142756660493 302.4625774847249 L 277.97102333408657 295.06161577906914 L 286.3173293586315 291.6410555371735 L 294.93372950822896 288.9036190722239 L 304.45305704430433 287.0576587447501 L 313.953762135794 285.1540463802139 L 323.9702641597226 284.3665013453666 L 333.9972835740523 283.95660389521953 L 344.03023817538366 284.3584763200854 L 354.03032325803343 285.19866161988745 L 363.55640638224116 287.0089778900816 L 373.14891483223136 288.4403441890161 L 381.5347522848965 292.06479482552487 L 390.0853565196797 294.9907157678904 L 404.3324636758796 302.88377545030085 L 414.9860484848176 312.420214784947 L 421.9133917059075 322.76695509879346 L 423.7226323724799 334.05625328684647 Z" fill="none" stroke="#1d4ed8" stroke-width="3" opacity="1" stroke-linejoin="round" />
<path d="M 423.6783468222811 333.93476510350877 L 421.3173961667367 345.0396255756628 L 415.32733527725486 355.8454366873931 L 404.7240101874224 365.5807243883716 L 389.8787017189853 372.66788931646016 L 381.72530013559 376.4810644753461 L 372.9703562801254 378.8216170596878 L 363.58082470024874 381.11663248840614 L 354.084174625591 383.0411042830993 L 344.01323874321196 383.3699502396886 L 334.01411801515314 384.22554153018666 L 323.9846093415426 383.404328036569 L 314.00164550521487 382.2906232616649 L 304.5778333177633 380.30047907086066 L 294.9501072130065 379.0502760667654 L 286.49102197969916 375.86137006165995 L 277.8085020211959 373.3133459282148 L 263.36007966162856 365.66964654218447 L 252.75545025367916 355.87215400942137 L 245.89250901175524 345.35529779868705 L 244.42028564413738 333.91476132557904 L 246.55547003914614 322.9345902553183 L 252.5675358254192 312.08834816666587 L 263.9894583452476 303.2262191967525 L 277.8813205863073 294.90015083306656 L 286.43127329250905 291.9674688546605 L 294.8001036898875 288.52082338330536 L 304.4006109850579 286.78787073764454 L 313.9317832273686 285.04098457942956 L 323.98629013198075 284.6225233333461 L 333.9767639952666 283.62879455743996 L 343.9895221293687 285.00893314576047 L 354.0459185521626 284.9495199053159 L 363.5513666096732 287.03490300660906 L 372.9350827752546 289.5403186262934 L 381.4511236990644 292.3043642629601 L 390.24294773796913 294.539266791028 L 404.45202483552885 302.6685653629322 L 414.75859776493036 312.67746495218006 L 421.9073267152347 322.77077511643597 L 423.4136999391364 334.118908272738 Z" fill="none" stroke="#1d4ed8" stroke-width="2.7" opacity="0.18" stroke-linejoin="round" />
</g>
<g>
<path d="M 644 334 L 641.7435120963642 345.1260466978157 L 635.0871981112177 355.6941869558779 L 624.3648334221227 365.17449009293665 L 610.114082167286 373.0915741234015 L 593.0495365205802 379.04844339512096 L 574.0268840560683 382.74639560909117 L 554 384 L 533.9731159439317 382.74639560909117 L 514.9504634794198 379.04844339512096 L 497.885917832714 373.0915741234015 L 483.6351665778773 365.1744900929367 L 472.91280188878227 355.6941869558779 L 466.25648790363584 345.12604669781575 L 464 334 L 466.25648790363584 322.8739533021843 L 472.91280188878227 312.3058130441221 L 483.63516657787727 302.82550990706335 L 497.885917832714 294.9084258765985 L 514.9504634794198 288.95155660487904 L 533.9731159439317 285.25360439090883 L 554 284 L 574.0268840560683 285.25360439090883 L 593.0495365205802 288.95155660487904 L 610.114082167286 294.9084258765985 L 624.3648334221227 302.8255099070633 L 635.0871981112177 312.3058130441221 L 641.7435120963642 322.87395330218425 Z" fill="#bfdbfe" opacity="1" stroke="none" />
<path d="M 643.2202075538338 333.84184928664143 L 642.5521082062871 345.29003911942993 L 634.8724651545593 355.55893799555236 L 624.964763746482 365.8530202657412 L 609.924510051584 372.75034431513774 L 601.3633875873966 375.44429953774977 L 592.756600356433 378.20927397295605 L 583.516684080326 380.7866864396058 L 574.0665862893976 382.9506280445009 L 563.9769423386934 382.79009913975943 L 554.0189920878469 384.3034069951014 L 544.0000160263459 383.15819943931575 L 533.9208506802696 383.58135628975856 L 524.587901730944 380.2486861017455 L 515.109223954353 378.2317629284708 L 506.5045748408434 375.82254540275096 L 497.6833093851949 373.6719832180767 L 483.74175136597074 364.9826374743685 L 473.50286333714115 355.0268186294847 L 466.4953392428086 344.97560684080366 L 463.23711568194886 334.1547215540533 L 466.18447753389887 322.8593487860735 L 473.461917437242 312.65167195736706 L 484.1813105579875 303.4432069197891 L 497.8850475412938 294.90685935204215 L 506.61313503999986 292.48844521823105 L 515.0474251330783 289.2293210629124 L 524.3864469625275 286.7150095262217 L 533.8232608439921 284.48273410345155 L 543.9505135335303 284.05097636503353 L 554.0339470759722 284.54231953833835 L 564.0585013382573 283.9069598049617 L 574.017184513548 285.4085588684598 L 583.6216207113939 286.6735085688472 L 593.0999155216693 288.69240176085276 L 601.6227555784457 291.81269323468433 L 610.3316977141383 294.2850261907394 L 624.1790580312006 303.1599056107231 L 634.9904580316042 312.4152275215572 L 642.1482158330307 322.61905177018014 L 643.7714199935922 334.0463586063838 Z" fill="none" stroke="#1d4ed8" stroke-width="3.3600000000000003" opacity="1" stroke-linejoin="round" />
<path d="M 644.8884581937848 334.1801893540097 L 641.2938846497568 345.03485717453145 L 634.9718972974813 355.6215650564489 L 624.2997734727294 365.1009063167678 L 610.2323382483684 373.3044350693496 L 601.2949827731924 375.2483413890653 L 592.8994063351312 378.6183679165963 L 583.5317786604282 380.8643345363822 L 573.9639731681428 382.42277543013967 L 564.0156302918364 383.4081562856809 L 554.0272932344021 384.4360214792247 L 544.0151092470524 382.91707856951655 L 533.9134204007456 383.70005828825936 L 524.2744811779911 381.86095416500905 L 515.0118272289211 378.7327818578318 L 506.13726864666694 376.8747614294815 L 497.9041475243119 373.0393518250417 L 484.064112414932 364.40238758623826 L 472.63205932291316 356.011710998251 L 465.63019298936115 345.5205168216895 L 464.66851698426194 333.8644172068181 L 466.09038096067343 322.8402649385018 L 472.54407729708936 312.0735728773169 L 483.8695681920095 303.09062163968446 L 497.68827633406454 294.5526711790295 L 506.4405921879293 291.9941645414418 L 514.962442266627 288.985872040012 L 524.362163900921 286.5900949207895 L 533.7837844465603 284.2796633914888 L 544.0110985364496 285.0188485564536 L 553.9440470669089 283.10612717078925 L 564.0084945794416 284.7058398727757 L 573.9858460831966 285.90920414036486 L 583.4021537951731 287.80246931067427 L 593.017882655598 289.11438739280567 L 601.7141735792404 291.55080958803484 L 610.2584602420366 294.494828375196 L 624.7396520940406 302.15083629761125 L 635.2822649881703 312.0851894877643 L 640.995791632957 323.34490297317865 L 644.7877522922498 333.8402349399745 Z" fill="none" stroke="#1d4ed8" stroke-width="2.4192" opacity="0.22" stroke-linejoin="round" />
<path d="M 643.6066192695091 333.92021794587197 L 641.4479988569403 345.0661132759782 L 635.5289544244467 355.97242595100573 L 623.8762545792962 364.6219001117488 L 609.7860965033173 372.50119992825773 L 601.545663570966 375.9664625566172 L 593.2096952064048 379.5072473540974 L 583.5512977086686 380.96474255942536 L 574.0870985087782 383.05614504363353 L 564.0414095334878 383.8199910617483 L 553.9772650345627 383.6367988815827 L 543.941905192718 384.0865456830802 L 533.9806759529214 382.62562112505407 L 524.2908002497509 381.7770071552406 L 514.8307840751305 379.6640867520996 L 506.22176419402575 376.6327084215881 L 497.83636956805947 373.23351422403886 L 483.4804220868655 365.45303017675803 L 472.8558242927627 355.7586294694555 L 466.83427877704014 344.76212671026667 L 464.4684670426858 333.9049895938977 L 465.5240471447674 322.72540604569645 L 473.5550592446015 312.710337067764 L 483.0788240165551 302.19627814639915 L 497.66836139162444 294.5168242826374 L 506.4874872267145 292.1285039894725 L 514.7328570569596 288.3281830575161 L 524.5464429808102 287.53804575692203 L 534.0907146083405 285.85854420459475 L 543.9631670001538 284.25312108534223 L 554.0088300967715 284.1410646975459 L 563.959766112575 285.4842986618837 L 574.0427538075618 285.00007809867196 L 583.6108849077434 286.7287346642517 L 593.2264552070471 288.04146840135286 L 601.3970952300789 292.45913873142183 L 610.1929750431892 294.68242274968065 L 624.065267504851 303.36472855815236 L 634.7273382415223 312.71281994084904 L 642.2699098747344 322.5424031137542 L 644.5724675692376 333.8838971127578 Z" fill="none" stroke="#1d4ed8" stroke-width="1.840944" opacity="0.3479" stroke-linejoin="round" />
</g>
<g>
<path d="M 114 414 L 184 459 L 114 504 L 44 459 Z" fill="#bbf7d0" opacity="1" stroke="none" />
<path d="M 114.0578858190564 413.9099553925789 L 127.97058111698588 423.04576270691086 L 142.11536091423827 431.82054968896267 L 155.9597706451399 441.062578996449 L 169.86644783479971 450.20774781253374 L 183.9979507218432 459.00318776602165 L 170.0562190324185 468.08745182820655 L 155.85266729465707 476.7708157916888 L 141.8612517865648 485.7841694457674 L 128.00968226362687 495.0150612989751 L 114.04383493081562 504.0681876701576 L 100.00402937700946 494.9937320802075 L 85.97399860988634 486.0404466068435 L 71.87341827620149 477.1969049036866 L 58.13372539189029 467.7919827237262 L 43.87841413612745 459.189133566024 L 57.86027471307709 449.78264955367547 L 72.12763097571684 441.1985370733373 L 85.87688073060161 431.8084811364914 L 100.08948991677448 423.13920653720476 L 113.8838607442032 413.8193389354272 Z" fill="none" stroke="#14532d" stroke-width="3" opacity="1" stroke-linejoin="round" />
</g>
<g>
<path d="M 334 414 L 404 459 L 334 504 L 264 459 Z" fill="#bbf7d0" opacity="1" stroke="none" />
<path d="M 333.80341090343796 414.3058052613187 L 348.01616588012007 422.97485307536874 L 362.04159591064035 431.935295250115 L 376.0371558368253 440.942202031605 L 389.8379698412719 450.25204691357703 L 403.8837920912835 459.18076785800343 L 389.78317421371287 467.66271544355334 L 375.8307206594262 476.7366765813297 L 361.8566264650935 485.7769745012565 L 347.73991609685754 494.5954250395562 L 333.752523877768 503.6150371431947 L 320.02174899631683 494.9661682279516 L 306.02677580116625 485.9583487537414 L 292.26192070642395 476.59256779000714 L 278.23222580316843 467.638759861738 L 264.162200502317 458.7476881075069 L 278.011048052457 450.0171858593776 L 292.1896084919013 441.2949465429576 L 305.96786151059314 431.950006794256 L 319.9018478909818 422.84731894152725 L 333.78326515577885 413.6628569089893 Z" fill="none" stroke="#14532d" stroke-width="3" opacity="1" stroke-linejoin="round" />
</g>
<g>
<path d="M 554 414 L 624 459 L 554 504 L 484 459 Z" fill="#bbf7d0" opacity="1" stroke="none" />
<path d="M 553.6077663694073 414.6101412031442 L 567.8349158291023 423.25679759917415 L 581.6323866328322 432.5718430155943 L 596.0576353371696 440.91034503106954 L 610.4161510000828 449.3526539998712 L 624.3628701680282 458.4355352941784 L 609.6399996625407 467.43999947506336 L 595.9091724310165 476.8587126704701 L 582.1113031269284 486.17313819744425 L 568.1246311343782 495.19387065347723 L 553.642800766364 503.44435674767726 L 539.8115926483989 495.29307810249065 L 525.8304668402657 486.26371824847564 L 511.6701367461878 477.51312061704124 L 497.8131010017764 468.2907317750145 L 483.81153343995317 459.2931702045173 L 498.0578319376027 450.0899607918264 L 511.8337687292287 440.74141802324465 L 526.3409813244108 432.5304153935279 L 540.3303622340233 423.5138968084806 L 553.6309212938808 413.4258775682589 Z" fill="none" stroke="#14532d" stroke-width="3.3600000000000003" opacity="1" stroke-linejoin="round" />
<path d="M 553.8570134916198 414.22242345748026 L 567.6107277376165 423.6055346303745 L 581.9129015498439 432.1354864780205 L 595.8824306350671 441.1828856787845 L 609.7881689018791 450.3295150415214 L 623.9318524093923 459.1060073631675 L 610.400448692064 468.622920187655 L 595.6935474652906 476.52329605711867 L 582.3739172471946 486.5816490511917 L 567.7781186314471 494.65485120447323 L 553.9778438389511 503.9655348605906 L 539.8299004771609 495.2645992577497 L 525.5706873426423 486.6678196892231 L 511.6719388392105 477.5103173612281 L 497.77129343679803 468.3557657649808 L 484.3013460664199 458.5312394522357 L 498.0884782423412 450.13763282141963 L 512.0668026571765 441.10391524449676 L 525.6633494611542 431.4763213840177 L 539.5432611415259 422.2895173312626 L 554.0287472503171 414.04471794493776 Z" fill="none" stroke="#14532d" stroke-width="3.0240000000000005" opacity="0.18" stroke-linejoin="round" />
</g>
<path d="M 34.34011482990287 586.0710002913252 L 56.853542461854744 582.3987354731667 L 79.37325004967171 578.6895321937075 L 101.83473395518665 574.7244937438197 L 124.3422965270985 571.0905842931876 L 146.84806554773266 567.3372284783434 L 169.330924789871 563.4779042297666 L 191.82120380791915 559.6842975621597 L 214.31744183416163 555.9158176121335 L 213.31700388654113 555.8178676382062 L 212.49957419595552 555.2328214986746 L 212.08418238786643 554.3174418341616 L 212.1821323617939 553.3170038865411 L 212.76717850132533 552.4995741959555 L 213.68255816583837 552.0841823878665 L 213.68255816583837 552.0841823878665 L 191.1717061912424 555.7731624328097 L 168.66027446683586 559.4692913104745 L 146.15412089518773 563.1758901791791 L 123.65026444250579 566.8647815244382 L 101.12506141268524 570.5342784634115 L 78.65866340249961 574.5019485193204 L 56.16426521191377 578.2081105694444 L 33.65988517009713 581.9289997086748 L 34.740952062762865 582.036403721516 L 35.623481448581124 582.6699517714377 L 36.071000291325156 583.6598851700971 L 35.963596278484 584.7409520627629 L 35.33004822856229 585.6234814485812 L 34.34011482990288 586.0710002913252 Z" fill="#7c2d12" opacity="1" />
<path d="M 254.29256103882213 585.7596875067477 L 276.82123082132995 582.159675956408 L 299.316038233816 578.4022788015601 L 321.82818662140943 574.7201436567295 L 344.30319411125123 570.8024021309994 L 366.81987581034247 567.1715733146946 L 389.3079602606446 563.3621699288606 L 411.8358626495556 559.7804489627431 L 434.3336633200074 555.9906900484821 L 433.29361588719644 555.89081981305 L 432.44284350695733 555.2843059356785 L 432.00930995151793 554.3336633200074 L 432.1091801869499 553.2936158871964 L 432.7156940643215 552.4428435069574 L 433.6663366799926 552.0093099515179 L 433.6663366799926 552.0093099515179 L 411.17103386381115 555.7609301174577 L 388.67355079426324 559.5268964005868 L 366.1687406546377 563.2601254751862 L 343.6754332748366 567.0693621855279 L 321.1822693330226 570.8425920698623 L 298.6613044901155 574.4617775420292 L 276.1817560454336 578.3582452441732 L 253.70743896117787 582.2403124932523 L 254.62647846159635 582.3297853970233 L 255.37765356415457 582.8667909548486 L 255.75968750674775 583.7074389611779 L 255.67021460297673 584.6264784615963 L 255.1332090451514 585.3776535641546 L 254.29256103882213 585.7596875067477 Z" fill="#7c2d12" opacity="1" />
<path d="M 474.42339317283006 586.509953388506 L 496.9000736630227 582.6976179361803 L 519.3995485032796 578.977862510823 L 541.9337471534889 575.1790249556528 L 564.3073254405322 570.8172986183416 L 586.8591992996859 567.5258418066528 L 609.384086949255 563.7166260513164 L 631.8335743439851 559.757747349675 L 654.3341908186381 556.1002830512045 L 653.23927621305 555.9859938868001 L 652.3481969318381 555.3395592642545 L 651.8997169487955 554.3341908186381 L 652.0140061131999 553.23927621305 L 652.6604407357455 552.3481969318381 L 653.6658091813619 551.8997169487955 L 653.6658091813619 551.8997169487955 L 631.1112662434401 555.4112961748762 L 608.6088596398246 559.2410534831605 L 586.1810809169855 563.2158394933754 L 563.5492370119266 566.3220760964115 L 541.1353696072895 570.7356756090177 L 518.6465269945619 574.2985904762253 L 496.0851978804882 577.7140113248846 L 473.57660682716994 581.490046611494 L 474.88830745079326 581.6146200168239 L 475.961986810346 582.3783540622873 L 476.509953388506 583.5766068271699 L 476.3853799831761 584.8883074507933 L 475.62164593771274 585.961986810346 L 474.42339317283006 586.509953388506 Z" fill="#7c2d12" opacity="1" />
<path d="M 34.334359650178165 656.0161011030208 L 56.83028395826418 652.2278252078631 L 79.32278529432706 648.4070338028607 L 101.81711811056928 644.637584509472 L 124.32358764767801 640.9602476666744 L 146.81584474235498 637.1860986987286 L 169.33817171168508 633.5263734908125 L 191.814319967602 629.614420393503 L 214.3084021564486 625.8695372001833 L 213.3323155019747 625.7732677869031 L 212.53513436954546 625.201852702158 L 212.13046279981663 624.3084021564486 L 212.22673221309688 623.3323155019747 L 212.79814729784192 622.5351343695455 L 213.6915978435514 622.1304627998167 L 213.6915978435514 622.1304627998167 L 191.17323541818064 625.8109119211929 L 168.68931864043898 629.638568621932 L 146.1750349859008 633.2591796708058 L 123.6530436488516 636.8995401125032 L 101.15132670078239 640.673084358638 L 78.6724011272152 644.5640847263928 L 56.175715093863296 648.3081691049017 L 33.665640349821835 651.9838988969792 L 34.71848660045561 652.0868254030971 L 35.57881494672473 652.7023854974349 L 36.01610110302076 653.6656403498218 L 35.913174596902884 654.7184866004557 L 35.297614502565146 655.5788149467247 L 34.334359650178165 656.0161011030208 Z" fill="#0f766e" opacity="1" />
<path d="M 214 624 L 199.66440830697286 635.3106503266085" fill="none" stroke="#0f766e" stroke-width="4" opacity="1" stroke-linejoin="round" stroke-linecap="round" />
<path d="M 214 624 L 196.77098613039857 617.9501172671628" fill="none" stroke="#0f766e" stroke-width="4" opacity="1" stroke-linejoin="round" stroke-linecap="round" />
<path d="M 254.36016132450067 656.1355795666443 L 276.8447912568862 652.3258682172348 L 299.3426527648086 648.5988831780427 L 321.87065560558887 644.9412332427684 L 344.32914583706224 640.9324800678273 L 366.8273410885047 637.2603815990266 L 389.3484205271449 633.6058840456001 L 411.84545958152285 629.8018694837515 L 434.3456211786568 626.0679527465089 L 433.26534034754826 625.963710201631 L 432.3819109770259 625.3332930940571 L 431.9320472534911 624.3456211786568 L 432.03628979836907 623.2653403475482 L 432.6667069059428 622.3819109770259 L 433.6543788213432 621.9320472534911 L 433.6543788213432 621.9320472534911 L 411.15793619156034 625.7185051547478 L 388.6764582799162 629.5433887967663 L 366.1576561657539 633.149601926525 L 343.6408647247513 636.8875833030538 L 321.1653018969344 640.774511772371 L 298.6655210210997 644.4501595374069 L 276.14075466123995 648.0874072915221 L 253.63983867549933 651.8644204333557 L 254.7558809268439 651.9704531812328 L 255.66938549426655 652.6203013601996 L 256.13557956664425 653.6398386754993 L 256.02954681876724 654.7558809268439 L 255.37969863980038 655.6693854942665 L 254.36016132450067 656.1355795666443 Z" fill="#0f766e" opacity="1" />
<path d="M 434 624 L 419.66440830697286 635.3106503266085" fill="none" stroke="#0f766e" stroke-width="4" opacity="1" stroke-linejoin="round" stroke-linecap="round" />
<path d="M 434 624 L 416.77098613039857 617.9501172671628" fill="none" stroke="#0f766e" stroke-width="4" opacity="1" stroke-linejoin="round" stroke-linecap="round" />
<path d="M 474.37383612301227 656.2472395435942 L 496.88961033262984 652.5592749644874 L 519.3597988478645 648.657977909484 L 541.8879771148322 645.0550243163932 L 564.3499163626875 641.0637698659378 L 586.8500225158847 637.4306723032406 L 609.4031362689324 633.9401899438909 L 631.889118825625 630.0543786228475 L 654.3766327232023 626.2888709878421 L 653.1817380122686 626.1705367830576 L 652.2060959401447 625.4706090001108 L 651.7111290121579 624.3766327232023 L 651.8294632169424 623.1817380122686 L 652.5293909998892 622.2060959401447 L 653.6233672767977 621.7111290121579 L 653.6233672767977 621.7111290121579 L 631.0954267414061 625.3528947793391 L 608.6282412654754 629.2480752625555 L 586.1123583958114 632.843613166936 L 563.5959652545632 636.6115198375668 L 541.1134263219158 640.4533963040949 L 518.6102211389281 644.1621420112716 L 496.11267518491223 647.9544381407649 L 473.62616387698773 651.7527604564058 L 474.7998681924162 651.8669154053523 L 475.75924847163543 652.552628648822 L 476.2472395435942 653.6261638769878 L 476.1330845946477 654.7998681924162 L 475.447371351178 655.7592484716354 L 474.37383612301227 656.2472395435942 Z" fill="#0f766e" opacity="1" />
<path d="M 654 624 L 637.9441373038096 636.6679283658016" fill="none" stroke="#0f766e" stroke-width="4.48" opacity="1" stroke-linejoin="round" stroke-linecap="round" />
<path d="M 654 624 L 634.7035044660463 617.2241313392224" fill="none" stroke="#0f766e" stroke-width="4.48" opacity="1" stroke-linejoin="round" stroke-linecap="round" />
</svg>
